<mxfile host="Electron" modified="2025-08-12T00:06:23.687Z" agent="Mozilla/5.0 (Windows NT 10.0; Win64; x64) AppleWebKit/537.36 (KHTML, like Gecko) draw.io/21.6.8 Chrome/114.0.5735.289 Electron/25.5.0 Safari/537.36" etag="WeUBQCVcLkC-UbQph7yt" version="21.6.8" type="device">
  <diagram name="Page-1" id="UzH42wVTTqzfnFHEOcIm">
    <mxGraphModel dx="1050" dy="717" grid="1" gridSize="10" guides="1" tooltips="1" connect="1" arrows="1" fold="1" page="1" pageScale="1" pageWidth="850" pageHeight="1100" math="0" shadow="0">
      <root>
        <mxCell id="0" />
        <mxCell id="1" parent="0" />
        <mxCell id="pFJaCw6ULllS_whc9ec7-60" value="" style="shape=rectangle;whiteSpace=wrap;html=1;fillColor=default;strokeColor=#E07A5F;strokeWidth=2;labelBackgroundColor=none;fontColor=#393C56;" vertex="1" parent="1">
          <mxGeometry x="2" y="310" width="40" height="40" as="geometry" />
        </mxCell>
        <mxCell id="pFJaCw6ULllS_whc9ec7-61" value="" style="shape=rectangle;whiteSpace=wrap;html=1;fillColor=default;strokeColor=#E07A5F;strokeWidth=2;labelBackgroundColor=none;fontColor=#393C56;" vertex="1" parent="1">
          <mxGeometry x="102" y="310" width="40" height="40" as="geometry" />
        </mxCell>
        <mxCell id="pFJaCw6ULllS_whc9ec7-62" value="" style="shape=rectangle;whiteSpace=wrap;html=1;fillColor=default;strokeColor=#E07A5F;strokeWidth=2;labelBackgroundColor=none;fontColor=#393C56;" vertex="1" parent="1">
          <mxGeometry x="202" y="310" width="40" height="40" as="geometry" />
        </mxCell>
        <mxCell id="pFJaCw6ULllS_whc9ec7-63" value="" style="shape=rectangle;whiteSpace=wrap;html=1;fillColor=default;strokeColor=#E07A5F;strokeWidth=2;labelBackgroundColor=none;fontColor=#393C56;" vertex="1" parent="1">
          <mxGeometry x="302" y="310" width="40" height="40" as="geometry" />
        </mxCell>
        <mxCell id="pFJaCw6ULllS_whc9ec7-64" value="" style="shape=rectangle;whiteSpace=wrap;html=1;fillColor=default;strokeColor=#E07A5F;strokeWidth=2;labelBackgroundColor=none;fontColor=#393C56;" vertex="1" parent="1">
          <mxGeometry x="402" y="310" width="40" height="40" as="geometry" />
        </mxCell>
        <mxCell id="pFJaCw6ULllS_whc9ec7-65" value="" style="shape=rectangle;whiteSpace=wrap;html=1;fillColor=default;strokeColor=#E07A5F;strokeWidth=2;labelBackgroundColor=none;fontColor=#393C56;" vertex="1" parent="1">
          <mxGeometry x="502" y="310" width="40" height="40" as="geometry" />
        </mxCell>
        <mxCell id="pFJaCw6ULllS_whc9ec7-66" value="" style="shape=rectangle;whiteSpace=wrap;html=1;fillColor=default;strokeColor=#E07A5F;strokeWidth=2;labelBackgroundColor=none;fontColor=#393C56;" vertex="1" parent="1">
          <mxGeometry x="602" y="310" width="40" height="40" as="geometry" />
        </mxCell>
        <mxCell id="pFJaCw6ULllS_whc9ec7-67" value="" style="shape=rectangle;whiteSpace=wrap;html=1;fillColor=default;strokeColor=#E07A5F;strokeWidth=2;labelBackgroundColor=none;fontColor=#393C56;" vertex="1" parent="1">
          <mxGeometry x="702" y="310" width="40" height="40" as="geometry" />
        </mxCell>
        <mxCell id="pFJaCw6ULllS_whc9ec7-68" value="" style="shape=rectangle;whiteSpace=wrap;html=1;fillColor=default;strokeColor=#E07A5F;strokeWidth=2;labelBackgroundColor=none;fontColor=#393C56;" vertex="1" parent="1">
          <mxGeometry x="802" y="310" width="40" height="40" as="geometry" />
        </mxCell>
        <mxCell id="pFJaCw6ULllS_whc9ec7-69" value="" style="rounded=1;whiteSpace=wrap;html=1;fillColor=#F2CC8F;strokeColor=none;labelBackgroundColor=none;fontColor=#393C56;" vertex="1" parent="1">
          <mxGeometry x="54" y="305" width="15" height="50" as="geometry" />
        </mxCell>
        <mxCell id="pFJaCw6ULllS_whc9ec7-70" value="" style="rounded=1;whiteSpace=wrap;html=1;fillColor=#F2CC8F;strokeColor=none;labelBackgroundColor=none;fontColor=#393C56;" vertex="1" parent="1">
          <mxGeometry x="154" y="305" width="15" height="50" as="geometry" />
        </mxCell>
        <mxCell id="pFJaCw6ULllS_whc9ec7-71" value="" style="rounded=1;whiteSpace=wrap;html=1;fillColor=#F2CC8F;strokeColor=none;labelBackgroundColor=none;fontColor=#393C56;" vertex="1" parent="1">
          <mxGeometry x="254" y="305" width="15" height="50" as="geometry" />
        </mxCell>
        <mxCell id="pFJaCw6ULllS_whc9ec7-72" value="" style="rounded=1;whiteSpace=wrap;html=1;fillColor=#F2CC8F;strokeColor=none;labelBackgroundColor=none;fontColor=#393C56;" vertex="1" parent="1">
          <mxGeometry x="354" y="305" width="15" height="50" as="geometry" />
        </mxCell>
        <mxCell id="pFJaCw6ULllS_whc9ec7-73" value="" style="rounded=1;whiteSpace=wrap;html=1;fillColor=#F2CC8F;strokeColor=none;labelBackgroundColor=none;fontColor=#393C56;" vertex="1" parent="1">
          <mxGeometry x="454" y="305" width="15" height="50" as="geometry" />
        </mxCell>
        <mxCell id="pFJaCw6ULllS_whc9ec7-74" value="" style="rounded=1;whiteSpace=wrap;html=1;fillColor=#F2CC8F;strokeColor=none;labelBackgroundColor=none;fontColor=#393C56;" vertex="1" parent="1">
          <mxGeometry x="554" y="305" width="15" height="50" as="geometry" />
        </mxCell>
        <mxCell id="pFJaCw6ULllS_whc9ec7-75" value="" style="rounded=1;whiteSpace=wrap;html=1;fillColor=#F2CC8F;strokeColor=none;labelBackgroundColor=none;fontColor=#393C56;" vertex="1" parent="1">
          <mxGeometry x="654" y="305" width="15" height="50" as="geometry" />
        </mxCell>
        <mxCell id="pFJaCw6ULllS_whc9ec7-76" value="" style="rounded=1;whiteSpace=wrap;html=1;fillColor=#F2CC8F;strokeColor=none;labelBackgroundColor=none;fontColor=#393C56;" vertex="1" parent="1">
          <mxGeometry x="754" y="305" width="15" height="50" as="geometry" />
        </mxCell>
        <mxCell id="pFJaCw6ULllS_whc9ec7-77" value="" style="endArrow=classic;html=1;rounded=0;strokeColor=#E07A5F;strokeWidth=2;labelBackgroundColor=none;fontColor=default;" edge="1" parent="1" source="pFJaCw6ULllS_whc9ec7-60" target="pFJaCw6ULllS_whc9ec7-69">
          <mxGeometry width="50" height="50" relative="1" as="geometry">
            <mxPoint x="42" y="330" as="sourcePoint" />
            <mxPoint x="92" y="330" as="targetPoint" />
          </mxGeometry>
        </mxCell>
        <mxCell id="pFJaCw6ULllS_whc9ec7-78" value="" style="endArrow=classic;html=1;rounded=0;strokeColor=#E07A5F;strokeWidth=2;labelBackgroundColor=none;fontColor=default;" edge="1" parent="1" source="pFJaCw6ULllS_whc9ec7-69" target="pFJaCw6ULllS_whc9ec7-61">
          <mxGeometry width="50" height="50" relative="1" as="geometry">
            <mxPoint x="52" y="340" as="sourcePoint" />
            <mxPoint x="102" y="340" as="targetPoint" />
          </mxGeometry>
        </mxCell>
        <mxCell id="pFJaCw6ULllS_whc9ec7-79" value="" style="endArrow=classic;html=1;rounded=0;strokeColor=#E07A5F;strokeWidth=2;labelBackgroundColor=none;fontColor=default;" edge="1" parent="1" source="pFJaCw6ULllS_whc9ec7-61" target="pFJaCw6ULllS_whc9ec7-70">
          <mxGeometry width="50" height="50" relative="1" as="geometry">
            <mxPoint x="142" y="330" as="sourcePoint" />
            <mxPoint x="192" y="330" as="targetPoint" />
          </mxGeometry>
        </mxCell>
        <mxCell id="pFJaCw6ULllS_whc9ec7-80" value="" style="endArrow=classic;html=1;rounded=0;strokeColor=#E07A5F;strokeWidth=2;labelBackgroundColor=none;fontColor=default;" edge="1" parent="1" source="pFJaCw6ULllS_whc9ec7-70" target="pFJaCw6ULllS_whc9ec7-62">
          <mxGeometry width="50" height="50" relative="1" as="geometry">
            <mxPoint x="152" y="340" as="sourcePoint" />
            <mxPoint x="202" y="340" as="targetPoint" />
          </mxGeometry>
        </mxCell>
        <mxCell id="pFJaCw6ULllS_whc9ec7-81" value="" style="endArrow=classic;html=1;rounded=0;strokeColor=#E07A5F;strokeWidth=2;labelBackgroundColor=none;fontColor=default;" edge="1" parent="1" source="pFJaCw6ULllS_whc9ec7-62" target="pFJaCw6ULllS_whc9ec7-71">
          <mxGeometry width="50" height="50" relative="1" as="geometry">
            <mxPoint x="242" y="330" as="sourcePoint" />
            <mxPoint x="292" y="330" as="targetPoint" />
          </mxGeometry>
        </mxCell>
        <mxCell id="pFJaCw6ULllS_whc9ec7-82" value="" style="endArrow=classic;html=1;rounded=0;strokeColor=#E07A5F;strokeWidth=2;labelBackgroundColor=none;fontColor=default;" edge="1" parent="1" source="pFJaCw6ULllS_whc9ec7-71" target="pFJaCw6ULllS_whc9ec7-63">
          <mxGeometry width="50" height="50" relative="1" as="geometry">
            <mxPoint x="252" y="340" as="sourcePoint" />
            <mxPoint x="302" y="340" as="targetPoint" />
          </mxGeometry>
        </mxCell>
        <mxCell id="pFJaCw6ULllS_whc9ec7-83" value="" style="endArrow=classic;html=1;rounded=0;strokeColor=#E07A5F;strokeWidth=2;labelBackgroundColor=none;fontColor=default;" edge="1" parent="1" source="pFJaCw6ULllS_whc9ec7-63" target="pFJaCw6ULllS_whc9ec7-72">
          <mxGeometry width="50" height="50" relative="1" as="geometry">
            <mxPoint x="342" y="330" as="sourcePoint" />
            <mxPoint x="392" y="330" as="targetPoint" />
          </mxGeometry>
        </mxCell>
        <mxCell id="pFJaCw6ULllS_whc9ec7-84" value="" style="endArrow=classic;html=1;rounded=0;strokeColor=#E07A5F;strokeWidth=2;labelBackgroundColor=none;fontColor=default;" edge="1" parent="1" source="pFJaCw6ULllS_whc9ec7-72" target="pFJaCw6ULllS_whc9ec7-64">
          <mxGeometry width="50" height="50" relative="1" as="geometry">
            <mxPoint x="352" y="340" as="sourcePoint" />
            <mxPoint x="402" y="340" as="targetPoint" />
          </mxGeometry>
        </mxCell>
        <mxCell id="pFJaCw6ULllS_whc9ec7-85" value="" style="endArrow=classic;html=1;rounded=0;strokeColor=#E07A5F;strokeWidth=2;labelBackgroundColor=none;fontColor=default;" edge="1" parent="1" source="pFJaCw6ULllS_whc9ec7-64" target="pFJaCw6ULllS_whc9ec7-73">
          <mxGeometry width="50" height="50" relative="1" as="geometry">
            <mxPoint x="442" y="330" as="sourcePoint" />
            <mxPoint x="492" y="330" as="targetPoint" />
          </mxGeometry>
        </mxCell>
        <mxCell id="pFJaCw6ULllS_whc9ec7-86" value="" style="endArrow=classic;html=1;rounded=0;strokeColor=#E07A5F;strokeWidth=2;labelBackgroundColor=none;fontColor=default;" edge="1" parent="1" source="pFJaCw6ULllS_whc9ec7-73" target="pFJaCw6ULllS_whc9ec7-65">
          <mxGeometry width="50" height="50" relative="1" as="geometry">
            <mxPoint x="452" y="340" as="sourcePoint" />
            <mxPoint x="502" y="340" as="targetPoint" />
          </mxGeometry>
        </mxCell>
        <mxCell id="pFJaCw6ULllS_whc9ec7-87" value="" style="endArrow=classic;html=1;rounded=0;strokeColor=#E07A5F;strokeWidth=2;labelBackgroundColor=none;fontColor=default;" edge="1" parent="1" source="pFJaCw6ULllS_whc9ec7-65" target="pFJaCw6ULllS_whc9ec7-74">
          <mxGeometry width="50" height="50" relative="1" as="geometry">
            <mxPoint x="542" y="330" as="sourcePoint" />
            <mxPoint x="592" y="330" as="targetPoint" />
          </mxGeometry>
        </mxCell>
        <mxCell id="pFJaCw6ULllS_whc9ec7-88" value="" style="endArrow=classic;html=1;rounded=0;strokeColor=#E07A5F;strokeWidth=2;labelBackgroundColor=none;fontColor=default;" edge="1" parent="1" source="pFJaCw6ULllS_whc9ec7-74" target="pFJaCw6ULllS_whc9ec7-66">
          <mxGeometry width="50" height="50" relative="1" as="geometry">
            <mxPoint x="552" y="340" as="sourcePoint" />
            <mxPoint x="602" y="340" as="targetPoint" />
          </mxGeometry>
        </mxCell>
        <mxCell id="pFJaCw6ULllS_whc9ec7-89" value="" style="endArrow=classic;html=1;rounded=0;strokeColor=#E07A5F;strokeWidth=2;labelBackgroundColor=none;fontColor=default;" edge="1" parent="1" source="pFJaCw6ULllS_whc9ec7-66" target="pFJaCw6ULllS_whc9ec7-75">
          <mxGeometry width="50" height="50" relative="1" as="geometry">
            <mxPoint x="642" y="330" as="sourcePoint" />
            <mxPoint x="692" y="330" as="targetPoint" />
          </mxGeometry>
        </mxCell>
        <mxCell id="pFJaCw6ULllS_whc9ec7-90" value="" style="endArrow=classic;html=1;rounded=0;strokeColor=#E07A5F;strokeWidth=2;labelBackgroundColor=none;fontColor=default;" edge="1" parent="1" source="pFJaCw6ULllS_whc9ec7-75" target="pFJaCw6ULllS_whc9ec7-67">
          <mxGeometry width="50" height="50" relative="1" as="geometry">
            <mxPoint x="652" y="340" as="sourcePoint" />
            <mxPoint x="702" y="340" as="targetPoint" />
          </mxGeometry>
        </mxCell>
        <mxCell id="pFJaCw6ULllS_whc9ec7-91" value="" style="endArrow=classic;html=1;rounded=0;strokeColor=#E07A5F;strokeWidth=2;labelBackgroundColor=none;fontColor=default;" edge="1" parent="1" source="pFJaCw6ULllS_whc9ec7-67" target="pFJaCw6ULllS_whc9ec7-76">
          <mxGeometry width="50" height="50" relative="1" as="geometry">
            <mxPoint x="742" y="330" as="sourcePoint" />
            <mxPoint x="792" y="330" as="targetPoint" />
          </mxGeometry>
        </mxCell>
        <mxCell id="pFJaCw6ULllS_whc9ec7-92" value="" style="endArrow=classic;html=1;rounded=0;strokeColor=#E07A5F;strokeWidth=2;labelBackgroundColor=none;fontColor=default;" edge="1" parent="1" source="pFJaCw6ULllS_whc9ec7-76" target="pFJaCw6ULllS_whc9ec7-68">
          <mxGeometry width="50" height="50" relative="1" as="geometry">
            <mxPoint x="752" y="340" as="sourcePoint" />
            <mxPoint x="802" y="340" as="targetPoint" />
          </mxGeometry>
        </mxCell>
        <mxCell id="pFJaCw6ULllS_whc9ec7-93" value="" style="rounded=1;whiteSpace=wrap;html=1;fillColor=#F2CC8F;strokeColor=none;labelBackgroundColor=none;fontColor=#393C56;" vertex="1" parent="1">
          <mxGeometry x="12" y="410" width="20" height="80" as="geometry" />
        </mxCell>
        <mxCell id="pFJaCw6ULllS_whc9ec7-94" value="" style="rounded=1;whiteSpace=wrap;html=1;fillColor=#F2CC8F;strokeColor=none;labelBackgroundColor=none;fontColor=#393C56;" vertex="1" parent="1">
          <mxGeometry x="112" y="410" width="20" height="80" as="geometry" />
        </mxCell>
        <mxCell id="pFJaCw6ULllS_whc9ec7-95" value="" style="rounded=1;whiteSpace=wrap;html=1;fillColor=#F2CC8F;strokeColor=none;labelBackgroundColor=none;fontColor=#393C56;" vertex="1" parent="1">
          <mxGeometry x="212" y="410" width="20" height="80" as="geometry" />
        </mxCell>
        <mxCell id="pFJaCw6ULllS_whc9ec7-96" value="" style="rounded=1;whiteSpace=wrap;html=1;fillColor=#F2CC8F;strokeColor=none;labelBackgroundColor=none;fontColor=#393C56;" vertex="1" parent="1">
          <mxGeometry x="312" y="410" width="20" height="80" as="geometry" />
        </mxCell>
        <mxCell id="pFJaCw6ULllS_whc9ec7-97" value="" style="rounded=1;whiteSpace=wrap;html=1;fillColor=#F2CC8F;strokeColor=none;labelBackgroundColor=none;fontColor=#393C56;" vertex="1" parent="1">
          <mxGeometry x="412" y="410" width="20" height="80" as="geometry" />
        </mxCell>
        <mxCell id="pFJaCw6ULllS_whc9ec7-98" value="" style="endArrow=classic;html=1;rounded=0;strokeColor=#E07A5F;strokeWidth=2;labelBackgroundColor=none;fontColor=default;" edge="1" parent="1" source="pFJaCw6ULllS_whc9ec7-93" target="pFJaCw6ULllS_whc9ec7-60">
          <mxGeometry width="50" height="50" relative="1" as="geometry">
            <mxPoint x="22" y="410" as="sourcePoint" />
            <mxPoint x="22" y="350" as="targetPoint" />
          </mxGeometry>
        </mxCell>
        <mxCell id="pFJaCw6ULllS_whc9ec7-99" value="" style="endArrow=classic;html=1;rounded=0;strokeColor=#E07A5F;strokeWidth=2;labelBackgroundColor=none;fontColor=default;" edge="1" parent="1" source="pFJaCw6ULllS_whc9ec7-94" target="pFJaCw6ULllS_whc9ec7-61">
          <mxGeometry width="50" height="50" relative="1" as="geometry">
            <mxPoint x="122" y="410" as="sourcePoint" />
            <mxPoint x="122" y="350" as="targetPoint" />
          </mxGeometry>
        </mxCell>
        <mxCell id="pFJaCw6ULllS_whc9ec7-100" value="" style="endArrow=classic;html=1;rounded=0;strokeColor=#E07A5F;strokeWidth=2;labelBackgroundColor=none;fontColor=default;" edge="1" parent="1" source="pFJaCw6ULllS_whc9ec7-95" target="pFJaCw6ULllS_whc9ec7-62">
          <mxGeometry width="50" height="50" relative="1" as="geometry">
            <mxPoint x="222" y="410" as="sourcePoint" />
            <mxPoint x="222" y="350" as="targetPoint" />
          </mxGeometry>
        </mxCell>
        <mxCell id="pFJaCw6ULllS_whc9ec7-101" value="" style="endArrow=classic;html=1;rounded=0;strokeColor=#E07A5F;strokeWidth=2;labelBackgroundColor=none;fontColor=default;" edge="1" parent="1" source="pFJaCw6ULllS_whc9ec7-96" target="pFJaCw6ULllS_whc9ec7-63">
          <mxGeometry width="50" height="50" relative="1" as="geometry">
            <mxPoint x="322" y="410" as="sourcePoint" />
            <mxPoint x="322" y="350" as="targetPoint" />
          </mxGeometry>
        </mxCell>
        <mxCell id="pFJaCw6ULllS_whc9ec7-102" value="" style="endArrow=classic;html=1;rounded=0;strokeColor=#E07A5F;strokeWidth=2;labelBackgroundColor=none;fontColor=default;" edge="1" parent="1" source="pFJaCw6ULllS_whc9ec7-97" target="pFJaCw6ULllS_whc9ec7-64">
          <mxGeometry width="50" height="50" relative="1" as="geometry">
            <mxPoint x="422" y="410" as="sourcePoint" />
            <mxPoint x="422" y="350" as="targetPoint" />
          </mxGeometry>
        </mxCell>
        <mxCell id="pFJaCw6ULllS_whc9ec7-103" value="input sequence" style="text;html=1;strokeColor=none;fillColor=none;align=center;verticalAlign=middle;whiteSpace=wrap;rounded=0;fontColor=#393C56;fontSize=16;labelBackgroundColor=none;" vertex="1" parent="1">
          <mxGeometry x="112" y="510" width="140" height="30" as="geometry" />
        </mxCell>
        <mxCell id="pFJaCw6ULllS_whc9ec7-104" value="" style="endArrow=none;html=1;rounded=0;strokeColor=#E07A5F;strokeWidth=2;labelBackgroundColor=none;fontColor=default;entryX=0.5;entryY=1;entryDx=0;entryDy=0;" edge="1" parent="1">
          <mxGeometry width="50" height="50" relative="1" as="geometry">
            <mxPoint x="18" y="490" as="sourcePoint" />
            <Array as="points">
              <mxPoint x="18" y="510" />
              <mxPoint x="328" y="510" />
            </Array>
            <mxPoint x="328" y="490" as="targetPoint" />
          </mxGeometry>
        </mxCell>
        <mxCell id="pFJaCw6ULllS_whc9ec7-107" value="" style="rounded=1;whiteSpace=wrap;html=1;fillColor=#F2CC8F;strokeColor=none;labelBackgroundColor=none;fontColor=#393C56;" vertex="1" parent="1">
          <mxGeometry x="512" y="160" width="20" height="80" as="geometry" />
        </mxCell>
        <mxCell id="pFJaCw6ULllS_whc9ec7-108" value="" style="rounded=1;whiteSpace=wrap;html=1;fillColor=#F2CC8F;strokeColor=none;labelBackgroundColor=none;fontColor=#393C56;" vertex="1" parent="1">
          <mxGeometry x="612" y="160" width="20" height="80" as="geometry" />
        </mxCell>
        <mxCell id="pFJaCw6ULllS_whc9ec7-109" value="" style="rounded=1;whiteSpace=wrap;html=1;fillColor=#F2CC8F;strokeColor=none;labelBackgroundColor=none;fontColor=#393C56;" vertex="1" parent="1">
          <mxGeometry x="712" y="160" width="20" height="80" as="geometry" />
        </mxCell>
        <mxCell id="pFJaCw6ULllS_whc9ec7-110" value="" style="rounded=1;whiteSpace=wrap;html=1;fillColor=#F2CC8F;strokeColor=none;labelBackgroundColor=none;fontColor=#393C56;" vertex="1" parent="1">
          <mxGeometry x="812" y="160" width="20" height="80" as="geometry" />
        </mxCell>
        <mxCell id="pFJaCw6ULllS_whc9ec7-111" value="" style="endArrow=classic;html=1;rounded=0;strokeColor=#E07A5F;strokeWidth=2;labelBackgroundColor=none;fontColor=default;" edge="1" parent="1" source="pFJaCw6ULllS_whc9ec7-65" target="pFJaCw6ULllS_whc9ec7-107">
          <mxGeometry width="50" height="50" relative="1" as="geometry">
            <mxPoint x="522" y="310" as="sourcePoint" />
            <mxPoint x="522" y="240" as="targetPoint" />
          </mxGeometry>
        </mxCell>
        <mxCell id="pFJaCw6ULllS_whc9ec7-112" value="" style="endArrow=classic;html=1;rounded=0;strokeColor=#E07A5F;strokeWidth=2;labelBackgroundColor=none;fontColor=default;" edge="1" parent="1" source="pFJaCw6ULllS_whc9ec7-66" target="pFJaCw6ULllS_whc9ec7-108">
          <mxGeometry width="50" height="50" relative="1" as="geometry">
            <mxPoint x="622" y="310" as="sourcePoint" />
            <mxPoint x="622" y="240" as="targetPoint" />
          </mxGeometry>
        </mxCell>
        <mxCell id="pFJaCw6ULllS_whc9ec7-113" value="" style="endArrow=classic;html=1;rounded=0;strokeColor=#E07A5F;strokeWidth=2;labelBackgroundColor=none;fontColor=default;" edge="1" parent="1" source="pFJaCw6ULllS_whc9ec7-67" target="pFJaCw6ULllS_whc9ec7-109">
          <mxGeometry width="50" height="50" relative="1" as="geometry">
            <mxPoint x="722" y="310" as="sourcePoint" />
            <mxPoint x="722" y="240" as="targetPoint" />
          </mxGeometry>
        </mxCell>
        <mxCell id="pFJaCw6ULllS_whc9ec7-114" value="" style="endArrow=classic;html=1;rounded=0;strokeColor=#E07A5F;strokeWidth=2;labelBackgroundColor=none;fontColor=default;" edge="1" parent="1" source="pFJaCw6ULllS_whc9ec7-68" target="pFJaCw6ULllS_whc9ec7-110">
          <mxGeometry width="50" height="50" relative="1" as="geometry">
            <mxPoint x="822" y="310" as="sourcePoint" />
            <mxPoint x="822" y="240" as="targetPoint" />
          </mxGeometry>
        </mxCell>
        <mxCell id="pFJaCw6ULllS_whc9ec7-115" value="output sequence" style="text;html=1;strokeColor=none;fillColor=none;align=center;verticalAlign=middle;whiteSpace=wrap;rounded=0;fontColor=#393C56;fontSize=16;labelBackgroundColor=none;" vertex="1" parent="1">
          <mxGeometry x="552" y="100" width="140" height="30" as="geometry" />
        </mxCell>
        <mxCell id="pFJaCw6ULllS_whc9ec7-116" value="" style="endArrow=none;html=1;rounded=0;strokeColor=#E07A5F;strokeWidth=2;labelBackgroundColor=none;fontColor=default;entryX=0.5;entryY=0;entryDx=0;entryDy=0;" edge="1" parent="1">
          <mxGeometry width="50" height="50" relative="1" as="geometry">
            <mxPoint x="518" y="160" as="sourcePoint" />
            <Array as="points">
              <mxPoint x="518" y="130" />
              <mxPoint x="728" y="130" />
            </Array>
            <mxPoint x="728" y="160" as="targetPoint" />
          </mxGeometry>
        </mxCell>
        <mxCell id="pFJaCw6ULllS_whc9ec7-119" value="&amp;lt;end&amp;gt;" style="text;html=1;strokeColor=none;fillColor=none;align=center;verticalAlign=middle;whiteSpace=wrap;rounded=0;fontColor=#393C56;fontSize=16;labelBackgroundColor=none;" vertex="1" parent="1">
          <mxGeometry x="396" y="510" width="56" height="30" as="geometry" />
        </mxCell>
        <mxCell id="pFJaCw6ULllS_whc9ec7-121" value="&amp;lt;end&amp;gt;" style="text;html=1;strokeColor=none;fillColor=none;align=center;verticalAlign=middle;whiteSpace=wrap;rounded=0;fontColor=#393C56;fontSize=16;labelBackgroundColor=none;" vertex="1" parent="1">
          <mxGeometry x="794" y="100" width="56" height="30" as="geometry" />
        </mxCell>
        <mxCell id="pFJaCw6ULllS_whc9ec7-122" value="" style="rounded=1;whiteSpace=wrap;html=1;fillColor=#F2CC8F;strokeColor=none;labelBackgroundColor=none;fontColor=#393C56;" vertex="1" parent="1">
          <mxGeometry x="512" y="410" width="20" height="80" as="geometry" />
        </mxCell>
        <mxCell id="pFJaCw6ULllS_whc9ec7-123" value="" style="endArrow=classic;html=1;rounded=0;strokeColor=#E07A5F;strokeWidth=2;labelBackgroundColor=none;fontColor=default;" edge="1" parent="1" source="pFJaCw6ULllS_whc9ec7-122">
          <mxGeometry width="50" height="50" relative="1" as="geometry">
            <mxPoint x="522" y="410" as="sourcePoint" />
            <mxPoint x="522" y="350" as="targetPoint" />
          </mxGeometry>
        </mxCell>
        <mxCell id="pFJaCw6ULllS_whc9ec7-124" value="" style="rounded=1;whiteSpace=wrap;html=1;fillColor=#F2CC8F;strokeColor=none;labelBackgroundColor=none;fontColor=#393C56;" vertex="1" parent="1">
          <mxGeometry x="612" y="410" width="20" height="80" as="geometry" />
        </mxCell>
        <mxCell id="pFJaCw6ULllS_whc9ec7-125" value="" style="endArrow=classic;html=1;rounded=0;strokeColor=#E07A5F;strokeWidth=2;labelBackgroundColor=none;fontColor=default;" edge="1" parent="1" source="pFJaCw6ULllS_whc9ec7-124">
          <mxGeometry width="50" height="50" relative="1" as="geometry">
            <mxPoint x="622" y="410" as="sourcePoint" />
            <mxPoint x="622" y="350" as="targetPoint" />
          </mxGeometry>
        </mxCell>
        <mxCell id="pFJaCw6ULllS_whc9ec7-126" value="" style="rounded=1;whiteSpace=wrap;html=1;fillColor=#F2CC8F;strokeColor=none;labelBackgroundColor=none;fontColor=#393C56;" vertex="1" parent="1">
          <mxGeometry x="712" y="410" width="20" height="80" as="geometry" />
        </mxCell>
        <mxCell id="pFJaCw6ULllS_whc9ec7-127" value="" style="endArrow=classic;html=1;rounded=0;strokeColor=#E07A5F;strokeWidth=2;labelBackgroundColor=none;fontColor=default;" edge="1" parent="1" source="pFJaCw6ULllS_whc9ec7-126">
          <mxGeometry width="50" height="50" relative="1" as="geometry">
            <mxPoint x="722" y="410" as="sourcePoint" />
            <mxPoint x="722" y="350" as="targetPoint" />
          </mxGeometry>
        </mxCell>
      </root>
    </mxGraphModel>
  </diagram>
</mxfile>
